<svg xmlns="http://www.w3.org/2000/svg" viewBox="0 0 64 64">
  <g fill="#DA7756">
    <rect x="28.6" y="2" width="6.8" height="27" rx="3.4"/>
    <rect x="28.6" y="2" width="6.8" height="27" rx="3.4" transform="rotate(45 32 32)"/>
    <rect x="28.6" y="2" width="6.8" height="27" rx="3.4" transform="rotate(90 32 32)"/>
    <rect x="28.6" y="2" width="6.8" height="27" rx="3.4" transform="rotate(135 32 32)"/>
    <rect x="28.6" y="2" width="6.8" height="27" rx="3.4" transform="rotate(180 32 32)"/>
    <rect x="28.6" y="2" width="6.8" height="27" rx="3.4" transform="rotate(225 32 32)"/>
    <rect x="28.6" y="2" width="6.8" height="27" rx="3.4" transform="rotate(270 32 32)"/>
    <rect x="28.6" y="2" width="6.8" height="27" rx="3.4" transform="rotate(315 32 32)"/>
    <circle cx="32" cy="32" r="5.5"/>
  </g>
</svg>
